<?xml version="1.0" encoding="UTF-8"?>
<!DOCTYPE svg PUBLIC "-//W3C//DTD SVG 1.1//EN" "http://www.w3.org/Graphics/SVG/1.1/DTD/svg11.dtd">
<!-- Creator: CorelDRAW 2021 (64-Bit Оценочная версия) -->
<svg  xmlns="http://www.w3.org/2000/svg" xml:space="preserve" width="54mm" height="13mm" version="1.1" style="shape-rendering:geometricPrecision; text-rendering:geometricPrecision; image-rendering:optimizeQuality; fill-rule:evenodd; clip-rule:evenodd"
viewBox="0 0 5400 1300"
 xmlns:xlink="http://www.w3.org/1999/xlink"
 xmlns:xodm="http://www.corel.com/coreldraw/odm/2003">
 <defs>
  <style type="text/css">
   <![CDATA[
    .fil3 {fill:none}
    .fil0 {fill:#242424}
    .fil1 {fill:#fff}
    .fil2 {fill:#fff}
    .fil4 {fill:#fff;fill-rule:nonzero}
   ]]>
  </style>
    <clipPath id="id0">
     <path d="M9.37 18.03l5370.52 0 0 1237.31 -5370.52 0 0 -1237.31z"/>
    </clipPath>
 </defs>
 <g id="Слой_x0020_1">
  <metadata id="CorelCorpID_0Corel-Layer"/>
  <g id="_2466862245824">
   <polygon class="fil0" points="9.37,18.03 5379.89,18.03 5379.89,1255.34 9.37,1255.34 "/>
   <g style="clip-path:url(#id0)">
    <g>
     <g>
      <path id="_1" class="fil1" d="M-2398.04 26480.14c7798.55,-6651.12 11040.38,7668.37 20177.54,-2399.94 0,2663.06 207.06,8043.41 207.06,10706.47 -6454.5,0 -13735.6,28.65 -20190.12,28.65 0,-2663.07 -194.48,-5672.12 -194.48,-8335.18z"/>
      <path class="fil2" d="M-1944.21 25775.57c3973.64,-3298.51 6703.26,-1729.8 9489.68,-333.12 2786.43,1396.68 5629.69,2621.32 9830.57,-1365.36l0 0c-8684.78,9223.05 -11710.61,-4002.03 -19320.25,1706.76l0 -8.28z"/>
     </g>
    </g>
   </g>
   <polygon class="fil3" points="9.37,18.03 5379.89,18.03 5379.89,1255.34 9.37,1255.34 "/>
   <g>
    <path class="fil1" d="M123.52 241.02c94.46,-100.57 249.01,-100.57 343.47,0l250.02 266.21 2.09 2.23 -343.46 365.7 -6.19 -6.59 -245.93 -261.85c-94.46,-100.57 -94.46,-265.12 0,-365.7z"/>
    <path class="fil2" d="M1384.6 241.02c-94.46,-100.57 -249.01,-100.57 -343.47,0l-250.01 266.21 -2.1 2.23 343.47 365.7 6.18 -6.59 245.93 -261.85c94.46,-100.57 94.46,-265.12 0,-365.7z"/>
    <ellipse class="fil1" cx="678.73" cy="813.64" rx="126.64" ry="134.84"/>
    <ellipse class="fil1" cx="915.79" cy="862.46" rx="74.32" ry="79.13"/>
    <ellipse class="fil1" cx="802.56" cy="984.16" rx="53.19" ry="56.64"/>
    <ellipse class="fil1" cx="517.06" cy="951.15" rx="53.19" ry="56.64"/>
    <ellipse class="fil1" cx="633.21" cy="1055.58" rx="59.54" ry="63.4"/>
    <ellipse class="fil1" cx="773.29" cy="1117.82" rx="37.26" ry="39.67"/>
    <ellipse class="fil1" cx="769.21" cy="644.42" rx="37.26" ry="39.67"/>
    <path class="fil4" d="M1890.72 780.23l-190.6 0 -42.89 162.35 -133.41 0 195.36 -710.27 152.47 0 195.36 710.27 -133.41 0 -42.88 -162.35zm-166.78 -91.32l142.95 0 -57.18 -213.08c-2.54,-8.12 -4.44,-16.57 -5.72,-25.36 -1.27,-8.8 -2.54,-16.92 -3.81,-24.36 -1.27,-8.79 -2.22,-17.58 -2.86,-26.38l-3.81 0c-1.27,8.8 -2.54,17.59 -3.81,26.38 -1.27,7.44 -2.54,15.73 -3.82,24.86 -1.27,9.13 -2.85,17.42 -4.76,24.86l-57.18 213.08z"/>
    <path class="fil4" d="M2318.54 433.28c26.68,0 50.82,2.7 72.42,8.12 21.6,5.41 40.66,11.16 57.18,17.25 19.06,7.44 36.21,15.89 51.46,25.36l-42.89 81.18 -9.52 0c-9.53,-7.45 -20.33,-14.21 -32.4,-20.3 -10.8,-5.41 -23.51,-10.14 -38.12,-14.2 -14.62,-4.06 -30.82,-6.09 -48.61,-6.09 -26.68,0 -46.06,5.24 -58.12,15.73 -12.07,10.48 -18.11,22.15 -18.11,35 0,14.21 6.51,25.71 19.53,34.5 13.03,8.79 29.23,16.91 48.61,24.35 19.37,7.44 40.33,14.88 62.89,22.33 22.55,7.44 43.52,17.25 62.9,29.42 19.38,12.18 35.58,27.57 48.6,46.17 13.02,18.6 19.53,42.11 19.53,70.52 0,23 -3.96,44.14 -11.91,63.42 -7.93,19.27 -20.48,36.02 -37.64,50.22 -17.15,14.21 -38.91,25.2 -65.27,32.98 -26.38,7.78 -57.98,11.67 -94.83,11.67 -28.58,0 -54.96,-2.54 -79.09,-7.61 -24.15,-5.08 -44.79,-11 -61.94,-17.76 -20.34,-7.44 -38.45,-15.9 -54.33,-25.37l42.89 -81.17 9.53 0c10.16,7.44 21.6,14.2 34.31,20.29 10.79,5.41 24.14,10.15 40.02,14.21 15.88,4.06 33.99,6.09 54.32,6.09 33.67,0 57.18,-5.58 70.51,-16.75 13.35,-11.16 20.02,-24.52 20.02,-40.08 0,-14.2 -6.51,-25.7 -19.54,-34.49 -13.02,-8.8 -29.22,-16.92 -48.6,-24.36 -19.38,-7.44 -40.34,-14.88 -62.9,-22.32 -22.55,-7.44 -43.51,-17.25 -62.89,-29.42 -19.38,-12.18 -35.58,-27.4 -48.6,-45.66 -13.03,-18.27 -19.53,-41.94 -19.53,-71.03 0,-21.65 3.96,-41.77 11.9,-60.37 7.95,-18.61 20.02,-34.67 36.22,-48.2 16.2,-13.53 37,-24.18 62.42,-31.96 25.41,-7.78 55.27,-11.67 89.58,-11.67z"/>
    <polygon class="fil4" points="2602.56,286.07 2640.67,245.48 2735.97,245.48 2735.97,955.75 2602.56,955.75 "/>
    <path class="fil4" d="M2945.36 829.01c6.36,6.08 13.03,11.16 20.02,15.22 6.34,4.06 13.81,7.61 22.39,10.65 8.58,3.04 18.26,4.57 29.06,4.57 13.35,0 25.42,-2.88 36.22,-8.63 10.8,-5.75 20.32,-15.22 28.59,-28.41 8.25,-13.19 14.61,-30.78 19.05,-52.76 4.46,-21.99 6.67,-49.55 6.67,-82.7 0,-31.79 -2.21,-58.34 -6.67,-79.65 -4.44,-21.31 -10.32,-38.56 -17.62,-51.75 -7.31,-13.19 -15.89,-22.49 -25.74,-27.9 -9.84,-5.41 -20.16,-8.12 -30.96,-8.12 -13.35,0 -24.94,3.22 -34.79,9.64 -9.84,6.43 -18.27,13.36 -25.26,20.8 -7.61,8.8 -14.6,18.94 -20.96,30.44l0 248.6zm-133.41 -395.72l95.29 0 9.53 60.88 4.76 0c8.9,-12.86 19.7,-24.7 32.41,-35.52 10.8,-8.79 24.14,-16.91 40.02,-24.35 15.89,-7.44 34.63,-11.16 56.22,-11.16 27.33,0 52.58,5.41 75.77,16.23 23.19,10.83 43.36,27.23 60.51,49.21 17.16,21.99 30.5,49.39 40.03,82.19 9.53,32.81 14.29,71.54 14.29,116.18 0,44.65 -4.76,83.37 -14.29,116.18 -9.53,32.81 -23.19,60.21 -40.98,82.19 -17.79,21.99 -38.91,38.39 -63.37,49.21 -24.46,10.83 -51.62,16.24 -81.48,16.24 -14.61,0 -27.8,-1.53 -39.55,-4.57 -11.76,-3.04 -21.76,-6.59 -30.02,-10.65 -10.17,-4.06 -18.74,-9.14 -25.73,-15.22l0 182.64 -38.12 40.58 -95.29 0 0 -710.26z"/>
    <path class="fil4" d="M3449.24 231.01l0 238.45c7.63,-8.12 16.84,-15.56 27.64,-22.32 8.9,-5.42 19.86,-10.66 32.88,-15.73 13.02,-5.08 27.8,-7.61 44.31,-7.61 57.81,0 102.44,16.74 133.9,50.22 31.44,33.49 47.16,81.01 47.16,142.57l0 324.69 -133.41 0 0 -324.69c0,-33.15 -6.52,-57.5 -19.53,-73.06 -13.03,-15.56 -30.34,-23.34 -51.94,-23.34 -13.35,0 -24.94,3.22 -34.79,9.64 -9.84,6.43 -18.27,13.36 -25.25,20.8 -7.62,8.8 -14.61,18.94 -20.97,30.44l0 360.21 -133.41 0 0 -669.68 38.11 -40.59 95.3 0z"/>
    <path class="fil4" d="M4075 630.9c0,-35.86 -7.3,-61.73 -21.91,-77.63 -14.61,-15.89 -37.48,-23.84 -68.62,-23.84 -15.88,0 -29.85,2.03 -41.92,6.09 -12.08,4.06 -22.56,8.79 -31.46,14.2 -10.16,6.09 -19.05,12.85 -26.68,20.3l-9.53 0 -42.88 -81.18c13.34,-9.47 28.27,-17.92 44.79,-25.36 14.61,-6.09 31.77,-11.84 51.46,-17.25 19.7,-5.42 41.61,-8.12 65.76,-8.12 34.31,0 64.8,4.73 91.48,14.2 26.69,9.47 49.08,22.83 67.18,40.08 18.11,17.25 31.93,37.72 41.46,61.39 9.52,23.68 14.29,49.38 14.29,77.12l0 324.69 -95.3 0 -9.53 -60.88 -4.76 0c-9.53,13.53 -20.33,25.37 -32.4,35.51 -10.8,9.47 -24.14,17.76 -40.02,24.86 -15.88,7.11 -34.63,10.66 -56.23,10.66 -57.18,0 -100.86,-14.72 -131.04,-44.14 -30.17,-29.43 -45.26,-67.14 -45.26,-113.14 0,-24.35 3.97,-46.5 11.91,-66.46 7.95,-19.95 20.65,-37.03 38.12,-51.24 17.47,-14.2 39.7,-25.2 66.71,-32.98 27,-7.77 59.56,-11.66 97.68,-11.66l66.7 0 0 -15.22zm0 106.54l-66.7 0c-28.59,0 -49.24,6.08 -61.95,18.26 -12.7,12.18 -19.05,29.76 -19.05,52.76 0,17.59 5.72,32.13 17.15,43.63 11.43,11.5 27.95,17.25 49.56,17.25 12.06,0 23.03,-3.21 32.87,-9.64 9.85,-6.42 18.27,-13.36 25.25,-20.8 8.27,-8.79 15.88,-18.94 22.87,-30.44l0 -71.02z"/>
    <path class="fil4" d="M4486.59 539.82c-13.34,0 -24.93,3.21 -34.78,9.63 -9.85,6.43 -18.27,13.36 -25.26,20.81 -7.62,8.79 -14.6,18.94 -20.96,30.44l0 355.13 -133.41 0 0 -507.33 95.29 0 9.53 60.88 4.76 0c8.9,-12.86 19.7,-24.7 32.4,-35.52 10.8,-8.79 24.15,-16.91 40.03,-24.35 15.88,-7.44 34.63,-11.16 56.22,-11.16 8.27,0 16.68,0.51 25.26,1.52 8.58,1.01 16.36,2.2 23.34,3.55 7.63,2.03 15.26,3.72 22.87,5.08l-19.05 101.46 -9.53 0c-6.99,-1.35 -13.98,-3.04 -20.97,-5.07 -6.35,-1.35 -13.49,-2.54 -21.44,-3.55 -7.94,-1.02 -16.04,-1.52 -24.3,-1.52z"/>
    <path id="_1_0" class="fil4" d="M5001.19 509.38c10.17,-12.86 22.56,-24.7 37.17,-35.52 12.71,-8.79 27.79,-16.91 45.26,-24.35 17.48,-7.44 37.64,-11.16 60.52,-11.16 52.73,0 94.5,16.74 125.31,50.22 30.81,33.49 46.23,81.01 46.23,142.57l0 324.69 -133.43 0 0 -324.69c0,-33.15 -6.18,-57.5 -18.57,-73.06 -12.39,-15.56 -26.84,-23.34 -43.37,-23.34 -10.8,0 -20.49,2.71 -29.06,8.12 -8.58,5.41 -16.04,11.16 -22.39,17.25 -6.99,7.44 -13.67,15.9 -20.02,25.37l0 370.35 -133.42 0 0 -324.69c0,-33.15 -6.19,-57.5 -18.58,-73.06 -12.39,-15.56 -26.84,-23.34 -43.36,-23.34 -12.07,0 -22.55,3.22 -31.44,9.64 -8.9,6.43 -16.2,13.36 -21.92,20.8 -6.99,8.8 -13.03,18.94 -18.11,30.44l0 360.21 -133.41 0 0 -507.33 95.29 0 9.53 60.88 4.76 0c8.89,-12.86 19.07,-24.7 30.5,-35.52 10.17,-8.79 22.72,-16.91 37.64,-24.35 14.93,-7.44 31.92,-11.16 50.99,-11.16 24.13,0 43.99,3.72 59.55,11.16 15.57,7.44 28.12,15.56 37.64,24.35 11.44,10.82 20.34,22.66 26.69,35.52z"/>
    <path class="fil4" d="M3730.75 1145c23.3,0 37.43,-15.25 38.96,-42.31l-15.47 0c-1.53,17.9 -9.36,26.65 -23.49,26.65 -13,0 -21.98,-8.95 -21.98,-27.87l0 -60.21c0,-19.12 8.6,-28.07 21.4,-28.07 13.94,0 21.97,8.54 23.12,26.85l15.47 0c-1.34,-27.46 -15.47,-42.51 -38.4,-42.51 -22.35,0 -37.26,15.66 -37.26,43.73l0 60.21c0,28.07 15.1,43.53 37.65,43.53z"/>
    <polygon id="_1_1" class="fil4" points="3890.67,1126.9 3890.67,1077.88 3935.57,1077.88 3935.57,1062.62 3890.67,1062.62 3890.67,1015.63 3939,1015.63 3939,1000.17 3875.01,1000.17 3875.01,1142.56 3941.11,1142.56 3941.11,1126.9 "/>
    <polygon id="_2" class="fil4" points="4110.39,1000.17 4037.22,1000.17 4037.22,1015.84 4065.88,1015.84 4065.88,1142.56 4081.73,1142.56 4081.73,1015.84 4110.39,1015.84 "/>
    <path id="_3" class="fil4" d="M4212.43 1142.56l35.15 0c24.26,0 38.97,-15.26 38.97,-42.51 0,-25.63 -14.71,-41.91 -38.97,-41.91l-19.3 0 0 -57.97 -15.85 0 0 142.39zm15.85 -15.46l0 -53.09 18.73 0c14.14,0 23.5,8.75 23.5,26.04 0,17.9 -9.36,27.05 -23.5,27.05l-18.73 0z"/>
    <path id="_4" class="fil4" d="M4574.29 1142.56l16.43 0 -34.39 -142.39 -17 0 -34.39 142.39 16.43 0 7.07 -30.92 38.78 0 7.07 30.92zm-42.41 -46.38l10.89 -48.21c2.1,-9.15 4.01,-21.15 4.77,-26.64l0.58 0c0.76,5.49 2.67,17.49 4.78,26.64l10.88 48.21 -31.9 0z"/>
    <polygon id="_5" class="fil4" points="4765.74,1000.17 4691.8,1000.17 4691.8,1142.56 4707.47,1142.56 4707.47,1015.84 4750.07,1015.84 4750.07,1142.56 4765.74,1142.56 "/>
    <polygon id="_6" class="fil4" points="4941.52,1000.17 4868.35,1000.17 4868.35,1015.84 4897.01,1015.84 4897.01,1142.56 4912.86,1142.56 4912.86,1015.84 4941.52,1015.84 "/>
    <polygon id="_7" class="fil4" points="5059.23,1126.9 5059.23,1077.88 5104.12,1077.88 5104.12,1062.62 5059.23,1062.62 5059.23,1015.63 5107.56,1015.63 5107.56,1000.17 5043.56,1000.17 5043.56,1142.56 5109.66,1142.56 5109.66,1126.9 "/>
    <polygon id="_8" class="fil4" points="5278.37,1142.56 5296.52,1142.56 5250.67,1062.21 5291.17,1000.17 5272.25,1000.17 5242.08,1048.18 5232.14,1065.26 5232.14,1000.17 5216.48,1000.17 5216.48,1142.56 5232.14,1142.56 5232.14,1090.89 5241.31,1076.66 "/>
   </g>
  </g>
 </g>
</svg>
