<svg width="50" height="50" viewBox="0 0 50 50"  xmlns="http://www.w3.org/2000/svg">
<circle cx="25" cy="25" r="25" />
<path d="M28.063 28.0304C28.063 28.0304 28.2745 27.8211 28.6975 27.4026C29.1205 26.9841 29.332 26.1833 29.332 25.0003C29.332 23.8172 28.909 22.8072 28.063 21.9701C27.217 21.1331 26.1961 20.7146 25.0004 20.7146C23.8048 20.7146 22.7839 21.1331 21.9379 21.9701C21.0919 22.8072 20.6689 23.8172 20.6689 25.0003C20.6689 26.1833 21.0919 27.1934 21.9379 28.0304C22.7839 28.8675 23.8048 29.286 25.0004 29.286C26.1961 29.286 27.217 28.8675 28.063 28.0304ZM29.7211 20.3295C29.7211 20.3295 30.0454 20.6504 30.694 21.2921C31.3426 21.9339 31.6669 23.1699 31.6669 25.0003C31.6669 26.8306 31.0183 28.3876 29.7211 29.671C28.4239 30.9545 26.8504 31.5963 25.0004 31.5963C23.1505 31.5963 21.577 30.9545 20.2798 29.671C18.9826 28.3876 18.334 26.8306 18.334 25.0003C18.334 23.1699 18.9826 21.613 20.2798 20.3295C21.577 19.046 23.1505 18.4043 25.0004 18.4043C26.8504 18.4043 28.4239 19.046 29.7211 20.3295ZM33.0375 17.0483C33.0375 17.0483 33.1136 17.1236 33.2659 17.2743C33.4182 17.4249 33.4943 17.7123 33.4943 18.1364C33.4943 18.5605 33.342 18.9233 33.0375 19.2246C32.7329 19.5259 32.3663 19.6766 31.9377 19.6766C31.509 19.6766 31.1424 19.5259 30.8379 19.2246C30.5333 18.9233 30.381 18.5605 30.381 18.1364C30.381 17.7123 30.5333 17.3496 30.8379 17.0483C31.1424 16.7469 31.509 16.5963 31.9377 16.5963C32.3663 16.5963 32.7329 16.7469 33.0375 17.0483ZM26.2948 14.445C26.2948 14.445 26.0988 14.4464 25.7069 14.4492C25.3149 14.452 25.0794 14.4534 25.0004 14.4534C24.9215 14.4534 24.49 14.4506 23.7061 14.445C22.9221 14.4395 22.3271 14.4395 21.921 14.445C21.5149 14.4506 20.9707 14.4674 20.2882 14.4953C19.6058 14.5232 19.0249 14.579 18.5455 14.6627C18.0661 14.7464 17.6628 14.8496 17.3357 14.9724C16.7717 15.1956 16.2753 15.5193 15.8467 15.9434C15.4181 16.3675 15.0909 16.8585 14.8653 17.4166C14.7413 17.7402 14.6369 18.1392 14.5523 18.6136C14.4677 19.0879 14.4113 19.6627 14.3831 20.3379C14.3549 21.0131 14.338 21.5516 14.3324 21.9534C14.3267 22.3552 14.3267 22.9439 14.3324 23.7196C14.338 24.4953 14.3408 24.9222 14.3408 25.0003C14.3408 25.0784 14.338 25.5053 14.3324 26.281C14.3267 27.0566 14.3267 27.6454 14.3324 28.0472C14.338 28.4489 14.3549 28.9874 14.3831 29.6627C14.4113 30.3379 14.4677 30.9127 14.5523 31.387C14.6369 31.8613 14.7413 32.2603 14.8653 32.584C15.0909 33.142 15.4181 33.6331 15.8467 34.0572C16.2753 34.4813 16.7717 34.805 17.3357 35.0282C17.6628 35.1509 18.0661 35.2542 18.5455 35.3379C19.0249 35.4216 19.6058 35.4774 20.2882 35.5053C20.9707 35.5332 21.5149 35.5499 21.921 35.5555C22.3271 35.5611 22.9221 35.5611 23.7061 35.5555C24.49 35.5499 24.9215 35.5472 25.0004 35.5472C25.0794 35.5472 25.5109 35.5499 26.2948 35.5555C27.0788 35.5611 27.6738 35.5611 28.0799 35.5555C28.486 35.5499 29.0302 35.5332 29.7127 35.5053C30.3951 35.4774 30.976 35.4216 31.4554 35.3379C31.9348 35.2542 32.3381 35.1509 32.6652 35.0282C33.2292 34.805 33.7255 34.4813 34.1542 34.0572C34.5828 33.6331 34.9099 33.142 35.1355 32.584C35.2596 32.2603 35.364 31.8613 35.4486 31.387C35.5332 30.9127 35.5896 30.3379 35.6178 29.6627C35.646 28.9874 35.6629 28.4489 35.6685 28.0472C35.6742 27.6454 35.6742 27.0566 35.6685 26.281C35.6629 25.5053 35.6601 25.0784 35.6601 25.0003C35.6601 24.9222 35.6629 24.4953 35.6685 23.7196C35.6742 22.9439 35.6742 22.3552 35.6685 21.9534C35.6629 21.5516 35.646 21.0131 35.6178 20.3379C35.5896 19.6627 35.5332 19.0879 35.4486 18.6136C35.364 18.1392 35.2596 17.7402 35.1355 17.4166C34.9099 16.8585 34.5828 16.3675 34.1542 15.9434C33.7255 15.5193 33.2292 15.1956 32.6652 14.9724C32.3381 14.8496 31.9348 14.7464 31.4554 14.6627C30.976 14.579 30.3951 14.5232 29.7127 14.4953C29.0302 14.4674 28.486 14.4506 28.0799 14.445C27.6738 14.4395 27.0788 14.4395 26.2948 14.445ZM37.9104 19.6934C37.9668 20.6755 37.995 22.4445 37.995 25.0003C37.995 27.5561 37.9668 29.3251 37.9104 30.3072C37.7976 32.6286 37.0983 34.4255 35.8123 35.6978C34.5264 36.9701 32.7103 37.6621 30.3641 37.7737C29.3715 37.8295 27.5836 37.8574 25.0004 37.8574C22.4173 37.8574 20.6294 37.8295 19.6368 37.7737C17.2905 37.6621 15.4745 36.9701 14.1885 35.6978C12.9026 34.4255 12.2033 32.6286 12.0905 30.3072C12.0341 29.3251 12.0059 27.5561 12.0059 25.0003C12.0059 22.4445 12.0341 20.6755 12.0905 19.6934C12.2033 17.3719 12.9026 15.5751 14.1885 14.3027C15.4745 13.0304 17.2905 12.3384 19.6368 12.2268C20.6294 12.171 22.4173 12.1431 25.0004 12.1431C27.5836 12.1431 29.3715 12.171 30.3641 12.2268C32.7103 12.3384 34.5264 13.0304 35.8123 14.3027C37.0983 15.5751 37.7976 17.3719 37.9104 19.6934Z" fill="white"/>
</svg>
